<svg width="21" height="21" viewBox="0 0 21 21" fill="none" xmlns="http://www.w3.org/2000/svg">
<g clip-path="url(#clip0_2_304)">
<path d="M15.1458 2.64093H6.81547C4.51513 2.64093 2.65033 4.50573 2.65033 6.80607V15.1364C2.65033 17.4367 4.51513 19.3015 6.81547 19.3015H15.1458C17.4461 19.3015 19.3109 17.4367 19.3109 15.1364V6.80607C19.3109 4.50573 17.4461 2.64093 15.1458 2.64093Z" stroke="#9CA3AF" stroke-width="2" stroke-linecap="round" stroke-linejoin="round"/>
<path d="M14.3127 10.4464C14.4155 11.1397 14.2971 11.8477 13.9743 12.4698C13.6515 13.0919 13.1408 13.5964 12.5147 13.9115C11.8887 14.2266 11.1792 14.3363 10.4873 14.2249C9.79532 14.1136 9.15608 13.7869 8.6605 13.2913C8.16491 12.7957 7.83821 12.1565 7.72686 11.4645C7.61552 10.7726 7.72519 10.0631 8.0403 9.43706C8.3554 8.81102 8.85988 8.30028 9.48199 7.97748C10.1041 7.65469 10.8121 7.53627 11.5054 7.63907C12.2126 7.74394 12.8673 8.07347 13.3728 8.57898C13.8783 9.0845 14.2079 9.7392 14.3127 10.4464Z" stroke="#9CA3AF" stroke-width="2" stroke-linecap="round" stroke-linejoin="round"/>
<path d="M15.5623 6.38953H15.5706" stroke="#9CA3AF" stroke-width="2" stroke-linecap="round" stroke-linejoin="round"/>
</g>
<defs>
<clipPath id="clip0_2_304">
<rect width="19.9927" height="19.9927" fill="white" transform="translate(0.984283 0.974854)"/>
</clipPath>
</defs>
</svg>
