<svg width="21" height="21" viewBox="0 0 21 21" fill="none" xmlns="http://www.w3.org/2000/svg">
<g clip-path="url(#clip0_2_309)">
<path d="M14.3051 7.6391C15.6307 7.6391 16.902 8.16569 17.8393 9.10303C18.7766 10.0404 19.3032 11.3117 19.3032 12.6373V18.4685H15.9711V12.6373C15.9711 12.1954 15.7956 11.7716 15.4831 11.4592C15.1707 11.1467 14.7469 10.9712 14.3051 10.9712C13.8632 10.9712 13.4394 11.1467 13.127 11.4592C12.8145 11.7716 12.639 12.1954 12.639 12.6373V18.4685H9.30688V12.6373C9.30688 11.3117 9.83348 10.0404 10.7708 9.10303C11.7082 8.16569 12.9795 7.6391 14.3051 7.6391Z" stroke="#9CA3AF" stroke-width="2" stroke-linecap="round" stroke-linejoin="round"/>
<path d="M5.97475 8.47211H2.64264V18.4685H5.97475V8.47211Z" stroke="#9CA3AF" stroke-width="2" stroke-linecap="round" stroke-linejoin="round"/>
<path d="M4.3087 5.97304C5.22883 5.97304 5.97475 5.22713 5.97475 4.30699C5.97475 3.38685 5.22883 2.64093 4.3087 2.64093C3.38856 2.64093 2.64264 3.38685 2.64264 4.30699C2.64264 5.22713 3.38856 5.97304 4.3087 5.97304Z" stroke="#9CA3AF" stroke-width="2" stroke-linecap="round" stroke-linejoin="round"/>
</g>
<defs>
<clipPath id="clip0_2_309">
<rect width="19.9927" height="19.9927" fill="white" transform="translate(0.976593 0.974854)"/>
</clipPath>
</defs>
</svg>
